<mxfile host="app.diagrams.net" modified="2020-11-09T05:20:40.105Z" agent="5.0 (Windows NT 10.0; Win64; x64) AppleWebKit/537.36 (KHTML, like Gecko) Chrome/86.0.4240.183 Safari/537.36" etag="yUYD4TcPxsaGhpv6MZS2" version="13.9.1" type="github">
  <diagram id="9FIMXnI7vqpIckKfm9GU" name="Page-1">
    <mxGraphModel dx="1038" dy="580" grid="1" gridSize="10" guides="1" tooltips="1" connect="1" arrows="1" fold="1" page="1" pageScale="1" pageWidth="827" pageHeight="1169" math="0" shadow="0">
      <root>
        <mxCell id="0" />
        <mxCell id="1" parent="0" />
        <mxCell id="3q4UW7nQz5JesCw3PHBX-3" value="" style="whiteSpace=wrap;html=1;aspect=fixed;fillColor=#fff2cc;strokeColor=#d6b656;" vertex="1" parent="1">
          <mxGeometry x="50" y="140" width="370" height="370" as="geometry" />
        </mxCell>
        <mxCell id="3q4UW7nQz5JesCw3PHBX-1" value="IBM Essentials" style="rounded=1;whiteSpace=wrap;html=1;" vertex="1" parent="1">
          <mxGeometry x="60" y="270" width="120" height="60" as="geometry" />
        </mxCell>
        <mxCell id="3q4UW7nQz5JesCw3PHBX-2" value="Employee Service on Openshift" style="rounded=1;whiteSpace=wrap;html=1;" vertex="1" parent="1">
          <mxGeometry x="250" y="270" width="120" height="60" as="geometry" />
        </mxCell>
        <mxCell id="3q4UW7nQz5JesCw3PHBX-4" value="" style="endArrow=none;html=1;exitX=1;exitY=0.5;exitDx=0;exitDy=0;entryX=0;entryY=0.5;entryDx=0;entryDy=0;" edge="1" parent="1" source="3q4UW7nQz5JesCw3PHBX-1" target="3q4UW7nQz5JesCw3PHBX-2">
          <mxGeometry width="50" height="50" relative="1" as="geometry">
            <mxPoint x="370" y="260" as="sourcePoint" />
            <mxPoint x="420" y="210" as="targetPoint" />
          </mxGeometry>
        </mxCell>
        <mxCell id="3q4UW7nQz5JesCw3PHBX-5" value="Kafka" style="rounded=1;whiteSpace=wrap;html=1;" vertex="1" parent="1">
          <mxGeometry x="250" y="390" width="120" height="60" as="geometry" />
        </mxCell>
        <mxCell id="3q4UW7nQz5JesCw3PHBX-6" value="" style="endArrow=classic;html=1;exitX=0.5;exitY=1;exitDx=0;exitDy=0;" edge="1" parent="1" source="3q4UW7nQz5JesCw3PHBX-2" target="3q4UW7nQz5JesCw3PHBX-5">
          <mxGeometry width="50" height="50" relative="1" as="geometry">
            <mxPoint x="360" y="220" as="sourcePoint" />
            <mxPoint x="410" y="170" as="targetPoint" />
          </mxGeometry>
        </mxCell>
        <mxCell id="3q4UW7nQz5JesCw3PHBX-7" value="Employee service on IBM Network" style="rounded=1;whiteSpace=wrap;html=1;arcSize=50;" vertex="1" parent="1">
          <mxGeometry x="250" y="585" width="120" height="60" as="geometry" />
        </mxCell>
        <mxCell id="3q4UW7nQz5JesCw3PHBX-8" value="" style="endArrow=classic;html=1;exitX=0.44;exitY=1.017;exitDx=0;exitDy=0;exitPerimeter=0;entryX=0.447;entryY=0.033;entryDx=0;entryDy=0;entryPerimeter=0;" edge="1" parent="1" source="3q4UW7nQz5JesCw3PHBX-5" target="3q4UW7nQz5JesCw3PHBX-7">
          <mxGeometry width="50" height="50" relative="1" as="geometry">
            <mxPoint x="430" y="420" as="sourcePoint" />
            <mxPoint x="480" y="370" as="targetPoint" />
          </mxGeometry>
        </mxCell>
        <mxCell id="3q4UW7nQz5JesCw3PHBX-9" value="Bluepages" style="rounded=1;whiteSpace=wrap;html=1;" vertex="1" parent="1">
          <mxGeometry x="500" y="585" width="120" height="60" as="geometry" />
        </mxCell>
        <mxCell id="3q4UW7nQz5JesCw3PHBX-10" value="" style="endArrow=classic;html=1;exitX=1;exitY=0.5;exitDx=0;exitDy=0;entryX=0;entryY=0.5;entryDx=0;entryDy=0;" edge="1" parent="1" source="3q4UW7nQz5JesCw3PHBX-7" target="3q4UW7nQz5JesCw3PHBX-9">
          <mxGeometry width="50" height="50" relative="1" as="geometry">
            <mxPoint x="430" y="600" as="sourcePoint" />
            <mxPoint x="480" y="550" as="targetPoint" />
          </mxGeometry>
        </mxCell>
        <mxCell id="3q4UW7nQz5JesCw3PHBX-12" value="" style="curved=1;endArrow=classic;html=1;exitX=1;exitY=0.25;exitDx=0;exitDy=0;entryX=1;entryY=0.5;entryDx=0;entryDy=0;" edge="1" parent="1" source="3q4UW7nQz5JesCw3PHBX-7" target="3q4UW7nQz5JesCw3PHBX-2">
          <mxGeometry width="50" height="50" relative="1" as="geometry">
            <mxPoint x="430" y="600" as="sourcePoint" />
            <mxPoint x="480" y="550" as="targetPoint" />
            <Array as="points">
              <mxPoint x="480" y="600" />
              <mxPoint x="430" y="550" />
            </Array>
          </mxGeometry>
        </mxCell>
        <mxCell id="3q4UW7nQz5JesCw3PHBX-13" value="Postgres" style="shape=cylinder3;whiteSpace=wrap;html=1;boundedLbl=1;backgroundOutline=1;size=15;" vertex="1" parent="1">
          <mxGeometry x="100" y="376" width="60" height="80" as="geometry" />
        </mxCell>
        <mxCell id="3q4UW7nQz5JesCw3PHBX-14" value="" style="endArrow=classic;html=1;exitX=0.25;exitY=1;exitDx=0;exitDy=0;" edge="1" parent="1" source="3q4UW7nQz5JesCw3PHBX-2" target="3q4UW7nQz5JesCw3PHBX-13">
          <mxGeometry width="50" height="50" relative="1" as="geometry">
            <mxPoint x="430" y="600" as="sourcePoint" />
            <mxPoint x="480" y="550" as="targetPoint" />
          </mxGeometry>
        </mxCell>
        <mxCell id="3q4UW7nQz5JesCw3PHBX-15" value="Team Service" style="rounded=1;whiteSpace=wrap;html=1;" vertex="1" parent="1">
          <mxGeometry x="260" y="160" width="120" height="60" as="geometry" />
        </mxCell>
        <mxCell id="3q4UW7nQz5JesCw3PHBX-16" value="" style="endArrow=classic;html=1;exitX=0.577;exitY=-0.023;exitDx=0;exitDy=0;exitPerimeter=0;entryX=0;entryY=0.5;entryDx=0;entryDy=0;" edge="1" parent="1" source="3q4UW7nQz5JesCw3PHBX-1" target="3q4UW7nQz5JesCw3PHBX-15">
          <mxGeometry width="50" height="50" relative="1" as="geometry">
            <mxPoint x="410" y="390" as="sourcePoint" />
            <mxPoint x="460" y="340" as="targetPoint" />
          </mxGeometry>
        </mxCell>
        <mxCell id="3q4UW7nQz5JesCw3PHBX-17" value="" style="endArrow=classic;html=1;exitX=0.5;exitY=1;exitDx=0;exitDy=0;" edge="1" parent="1" source="3q4UW7nQz5JesCw3PHBX-15" target="3q4UW7nQz5JesCw3PHBX-13">
          <mxGeometry width="50" height="50" relative="1" as="geometry">
            <mxPoint x="410" y="390" as="sourcePoint" />
            <mxPoint x="460" y="340" as="targetPoint" />
            <Array as="points">
              <mxPoint x="210" y="290" />
            </Array>
          </mxGeometry>
        </mxCell>
        <mxCell id="3q4UW7nQz5JesCw3PHBX-18" value="" style="endArrow=classic;html=1;exitX=0.5;exitY=0;exitDx=0;exitDy=0;" edge="1" parent="1" source="3q4UW7nQz5JesCw3PHBX-2">
          <mxGeometry width="50" height="50" relative="1" as="geometry">
            <mxPoint x="410" y="390" as="sourcePoint" />
            <mxPoint x="320" y="220" as="targetPoint" />
          </mxGeometry>
        </mxCell>
      </root>
    </mxGraphModel>
  </diagram>
</mxfile>
